<svg xmlns="http://www.w3.org/2000/svg" xmlns:xlink="http://www.w3.org/1999/xlink" contentStyleType="text/css" data-diagram-type="SEQUENCE" height="387px" preserveAspectRatio="none" style="width:683px;height:387px;background:#FFFFFF;" version="1.1" viewBox="0 0 683 387" width="683px" zoomAndPan="magnify"><defs/><g><g><title>User</title><rect fill="transparent" height="225.1738" width="8" x="19.1826" y="81.4883"/><line style="stroke:#181818;stroke-width:0.5;stroke-dasharray:5.0,5.0;" x1="23" x2="23" y1="81.4883" y2="306.6621"/></g><g><title>Preprocessing</title><rect fill="transparent" height="225.1738" width="8" x="117.7422" y="81.4883"/><line style="stroke:#181818;stroke-width:0.5;stroke-dasharray:5.0,5.0;" x1="121.1846" x2="121.1846" y1="81.4883" y2="306.6621"/></g><g><title>Retriever</title><rect fill="transparent" height="225.1738" width="8" x="246.4468" y="81.4883"/><line style="stroke:#181818;stroke-width:0.5;stroke-dasharray:5.0,5.0;" x1="250.3276" x2="250.3276" y1="81.4883" y2="306.6621"/></g><g><title>DocumentStore</title><rect fill="transparent" height="225.1738" width="8" x="396.562" y="81.4883"/><line style="stroke:#181818;stroke-width:0.5;stroke-dasharray:5.0,5.0;" x1="400.2397" x2="400.2397" y1="81.4883" y2="306.6621"/></g><g><title>Generator</title><rect fill="transparent" height="225.1738" width="8" x="506.5991" y="81.4883"/><line style="stroke:#181818;stroke-width:0.5;stroke-dasharray:5.0,5.0;" x1="509.8843" x2="509.8843" y1="81.4883" y2="306.6621"/></g><g><title>Postprocessing</title><rect fill="transparent" height="225.1738" width="8" x="615.5938" y="81.4883"/><line style="stroke:#181818;stroke-width:0.5;stroke-dasharray:5.0,5.0;" x1="619.314" x2="619.314" y1="81.4883" y2="306.6621"/></g><text fill="#000000" font-family="sans-serif" font-size="14" lengthAdjust="spacing" textLength="30.3652" x="5" y="78.5352">User</text><ellipse cx="23.1826" cy="13.5" fill="#E3E3E3" rx="8" ry="8" style="stroke:#181818;stroke-width:0.5;"/><path d="M23.1826,21.5 L23.1826,48.5 M10.1826,29.5 L36.1826,29.5 M23.1826,48.5 L10.1826,63.5 M23.1826,48.5 L36.1826,63.5 " fill="transparent" style="stroke:#181818;stroke-width:0.5;"/><text fill="#000000" font-family="sans-serif" font-size="14" lengthAdjust="spacing" textLength="30.3652" x="5" y="319.1973">User</text><ellipse cx="23.1826" cy="330.6504" fill="#E3E3E3" rx="8" ry="8" style="stroke:#181818;stroke-width:0.5;"/><path d="M23.1826,338.6504 L23.1826,365.6504 M10.1826,346.6504 L36.1826,346.6504 M23.1826,365.6504 L10.1826,380.6504 M23.1826,365.6504 L36.1826,380.6504 " fill="transparent" style="stroke:#181818;stroke-width:0.5;"/><rect fill="#E3E3E3" height="30.4883" rx="2.5" ry="2.5" style="stroke:#181818;stroke-width:0.5;" width="109.1152" x="67.1846" y="50"/><text fill="#000000" font-family="sans-serif" font-size="14" lengthAdjust="spacing" textLength="95.1152" x="74.1846" y="70.5352">Preprocessing</text><rect fill="#E3E3E3" height="30.4883" rx="2.5" ry="2.5" style="stroke:#181818;stroke-width:0.5;" width="109.1152" x="67.1846" y="305.6621"/><text fill="#000000" font-family="sans-serif" font-size="14" lengthAdjust="spacing" textLength="95.1152" x="74.1846" y="326.1973">Preprocessing</text><rect fill="#E3E3E3" height="30.4883" rx="2.5" ry="2.5" style="stroke:#181818;stroke-width:0.5;" width="74.2383" x="213.3276" y="50"/><text fill="#000000" font-family="sans-serif" font-size="14" lengthAdjust="spacing" textLength="60.2383" x="220.3276" y="70.5352">Retriever</text><rect fill="#E3E3E3" height="30.4883" rx="2.5" ry="2.5" style="stroke:#181818;stroke-width:0.5;" width="74.2383" x="213.3276" y="305.6621"/><text fill="#000000" font-family="sans-serif" font-size="14" lengthAdjust="spacing" textLength="60.2383" x="220.3276" y="326.1973">Retriever</text><rect fill="#E3E3E3" height="30.4883" rx="2.5" ry="2.5" style="stroke:#181818;stroke-width:0.5;" width="118.6445" x="341.2397" y="50"/><text fill="#000000" font-family="sans-serif" font-size="14" lengthAdjust="spacing" textLength="104.6445" x="348.2397" y="70.5352">DocumentStore</text><rect fill="#E3E3E3" height="30.4883" rx="2.5" ry="2.5" style="stroke:#181818;stroke-width:0.5;" width="118.6445" x="341.2397" y="305.6621"/><text fill="#000000" font-family="sans-serif" font-size="14" lengthAdjust="spacing" textLength="104.6445" x="348.2397" y="326.1973">DocumentStore</text><rect fill="#E3E3E3" height="30.4883" rx="2.5" ry="2.5" style="stroke:#181818;stroke-width:0.5;" width="81.4297" x="469.8843" y="50"/><text fill="#000000" font-family="sans-serif" font-size="14" lengthAdjust="spacing" textLength="67.4297" x="476.8843" y="70.5352">Generator</text><rect fill="#E3E3E3" height="30.4883" rx="2.5" ry="2.5" style="stroke:#181818;stroke-width:0.5;" width="81.4297" x="469.8843" y="305.6621"/><text fill="#000000" font-family="sans-serif" font-size="14" lengthAdjust="spacing" textLength="67.4297" x="476.8843" y="326.1973">Generator</text><rect fill="#E3E3E3" height="30.4883" rx="2.5" ry="2.5" style="stroke:#181818;stroke-width:0.5;" width="116.5596" x="561.314" y="50"/><text fill="#000000" font-family="sans-serif" font-size="14" lengthAdjust="spacing" textLength="102.5596" x="568.314" y="70.5352">Postprocessing</text><rect fill="#E3E3E3" height="30.4883" rx="2.5" ry="2.5" style="stroke:#181818;stroke-width:0.5;" width="116.5596" x="561.314" y="305.6621"/><text fill="#000000" font-family="sans-serif" font-size="14" lengthAdjust="spacing" textLength="102.5596" x="568.314" y="326.1973">Postprocessing</text><polygon fill="#181818" points="109.7422,108.7988,119.7422,112.7988,109.7422,116.7988,113.7422,112.7988" style="stroke:#181818;stroke-width:1;"/><line style="stroke:#181818;stroke-width:1;" x1="23.1826" x2="115.7422" y1="112.7988" y2="112.7988"/><text fill="#000000" font-family="sans-serif" font-size="13" lengthAdjust="spacing" textLength="74.5596" x="30.1826" y="108.0566">Input Query</text><polygon fill="#181818" points="238.4468,138.1094,248.4468,142.1094,238.4468,146.1094,242.4468,142.1094" style="stroke:#181818;stroke-width:1;"/><line style="stroke:#181818;stroke-width:1;" x1="121.7422" x2="244.4468" y1="142.1094" y2="142.1094"/><text fill="#000000" font-family="sans-serif" font-size="13" lengthAdjust="spacing" textLength="104.7046" x="128.7422" y="137.3672">Processed Query</text><polygon fill="#181818" points="388.562,167.4199,398.562,171.4199,388.562,175.4199,392.562,171.4199" style="stroke:#181818;stroke-width:1;"/><line style="stroke:#181818;stroke-width:1;" x1="250.4468" x2="394.562" y1="171.4199" y2="171.4199"/><text fill="#000000" font-family="sans-serif" font-size="13" lengthAdjust="spacing" textLength="126.1152" x="257.4468" y="166.6777">Retrieve Documents</text><polygon fill="#181818" points="261.4468,196.7305,251.4468,200.7305,261.4468,204.7305,257.4468,200.7305" style="stroke:#181818;stroke-width:1;"/><line style="stroke:#181818;stroke-width:1;stroke-dasharray:2.0,2.0;" x1="255.4468" x2="399.562" y1="200.7305" y2="200.7305"/><text fill="#000000" font-family="sans-serif" font-size="13" lengthAdjust="spacing" textLength="71.3857" x="267.4468" y="195.9883">Documents</text><polygon fill="#181818" points="498.5991,226.041,508.5991,230.041,498.5991,234.041,502.5991,230.041" style="stroke:#181818;stroke-width:1;"/><line style="stroke:#181818;stroke-width:1;" x1="250.4468" x2="504.5991" y1="230.041" y2="230.041"/><text fill="#000000" font-family="sans-serif" font-size="13" lengthAdjust="spacing" textLength="127.4673" x="257.4468" y="225.2988">Documents + Query</text><polygon fill="#181818" points="607.5938,255.3516,617.5938,259.3516,607.5938,263.3516,611.5938,259.3516" style="stroke:#181818;stroke-width:1;"/><line style="stroke:#181818;stroke-width:1;" x1="510.5991" x2="613.5938" y1="259.3516" y2="259.3516"/><text fill="#000000" font-family="sans-serif" font-size="13" lengthAdjust="spacing" textLength="73.6709" x="517.5991" y="254.6094">Raw Output</text><polygon fill="#181818" points="34.1826,284.6621,24.1826,288.6621,34.1826,292.6621,30.1826,288.6621" style="stroke:#181818;stroke-width:1;"/><line style="stroke:#181818;stroke-width:1;" x1="28.1826" x2="618.5938" y1="288.6621" y2="288.6621"/><text fill="#000000" font-family="sans-serif" font-size="13" lengthAdjust="spacing" textLength="77.9873" x="40.1826" y="283.9199">Final Output</text><!--SRC=[NP0z3i8m34RtdC8xwWKwC24G4r340Q9WGGHnAiS1SNkSggMaYvVt_FCvFJprbcs042cwEyU089pH6EiaCbmIiYa5cZKS6NkE3bFoT8CMzjHdWLD6_fYQgToXiCUNThRQE12yZlBCLDn4bmEId7KVgZp17qYcLfh5zDchvkwGa6q9yQV0QZnXfYLOJ58bw-mR3baqdbamjOTtjB3rP9-JzGK0]--></g></svg>
